<svg width="660" height="470" viewBox="0 0 660 470" fill="none" xmlns="http://www.w3.org/2000/svg">
<path d="M300 293.75C300 304.917 298.583 315 295.75 324C292.917 332.833 289.167 340.667 284.5 347.5C279.833 354.167 274.417 359.917 268.25 364.75C262.083 369.417 255.583 373.25 248.75 376.25C242.083 379.25 235.25 381.5 228.25 383C221.417 384.333 214.917 385 208.75 385H91.5C80.3333 385 70.3333 383.583 61.5 380.75C52.6667 377.917 44.8333 374.167 38 369.5C31.3333 364.667 25.5833 359.167 20.75 353C16.0833 346.833 12.25 340.417 9.25 333.75C6.25 326.917 4 320.083 2.5 313.25C1.16667 306.25 0.5 299.75 0.5 293.75V205.75C0.5 189.083 3.5 175 9.5 163.5C15.6667 151.833 23.25 142.417 32.25 135.25C41.4167 127.917 51.3333 122.667 62 119.5C72.6667 116.333 82.5 114.75 91.5 114.75H208.75V179.75H92C83.3333 179.75 76.75 182 72.25 186.5C67.75 190.833 65.5 197.25 65.5 205.75V293.25C65.5 302.083 67.6667 308.75 72 313.25C76.5 317.75 83 320 91.5 320H208.75C217.583 320 224.167 317.75 228.5 313.25C232.833 308.75 235 302.25 235 293.75V0.5H300V293.75ZM660 293.75C660 304.917 658.583 315 655.75 324C652.917 332.833 649.167 340.667 644.5 347.5C639.833 354.167 634.417 359.917 628.25 364.75C622.083 369.417 615.583 373.25 608.75 376.25C602.083 379.25 595.333 381.5 588.5 383C581.667 384.333 575.167 385 569 385H451.75V320H569C577.667 320 584.167 317.75 588.5 313.25C592.833 308.75 595 302.25 595 293.75V206.25C595 197.25 592.75 190.583 588.25 186.25C583.917 181.917 577.5 179.75 569 179.75H452.25C443.417 179.75 436.75 182 432.25 186.5C427.75 190.833 425.5 197.25 425.5 205.75V469.5H360.5V205.75C360.5 194.583 361.917 184.583 364.75 175.75C367.583 166.917 371.333 159.167 376 152.5C380.833 145.667 386.333 139.917 392.5 135.25C398.667 130.417 405.083 126.5 411.75 123.5C418.583 120.5 425.417 118.333 432.25 117C439.25 115.5 445.75 114.75 451.75 114.75H569C580.167 114.75 590.167 116.167 599 119C607.833 121.833 615.583 125.583 622.25 130.25C629.083 134.917 634.833 140.333 639.5 146.5C644.333 152.667 648.25 159.167 651.25 166C654.25 172.667 656.417 179.417 657.75 186.25C659.25 193.083 660 199.583 660 205.75V293.75Z" fill="#FFC300"/>
</svg>
